<?xml version="1.0"?>
<svg xmlns="http://www.w3.org/2000/svg" xmlns:xlink="http://www.w3.org/1999/xlink" version="1.1" id="Capa_1" x="0px" y="0px" viewBox="0 0 433.25 433.25" style="enable-background:new 0 0 433.25 433.25;" xml:space="preserve" width="512px" height="512px" class=""><g><g>
	<g>
		<path d="M418.4,192.331c19.8-19.8,19.8-51.9,0-71.7l-0.1-0.1l-78.6-78.3c-19.8-19.8-51.9-19.7-71.8,0l-169.5,169.6l-54.2,54.1    c-19.8,19.7-19.8,51.8-0.1,71.6l48.3,48.3H10c-5.5,0-10,4.5-10,10s4.5,10,10,10h297.4c5.5,0,10-4.5,10-10s-4.5-10-10-10H225    l23.9-23.7L418.4,192.331z M196.7,385.831h-76.1l-62.3-62.4c-12-12-11.9-31.4,0-43.4l47.1-47l122.2,122L196.7,385.831z     M119.6,218.931l162.5-162.5c12-12,31.5-12,43.5,0l78.6,78.4c12,12,12,31.4,0,43.5l-162.4,162.8L119.6,218.931z" data-original="#000000" class="active-path" data-old_color="#000000" fill="#A1A1A5"/>
	</g>
</g></g> </svg>
