<?xml version="1.0"?>
<svg xmlns="http://www.w3.org/2000/svg" height="512px" viewBox="0 0 512 512.0095" width="512px" class=""><g><path d="m500.699219 288.007812h-63.359375c-23.46875 0-42.667969 19.203126-42.667969 42.667969 0 17.707031-7.253906 33.707031-18.773437 45.226563-11.519532 11.519531-27.519532 18.773437-45.226563 18.773437h-149.332031c-35.414063 0-64-28.585937-64-64 0-11.734375-4.695313-22.398437-12.589844-30.078125-7.679688-7.894531-18.34375-12.589844-30.078125-12.589844h-62.933594c1.492188-9.8125 5.332031-18.984374 11.304688-27.089843l30.296875-47.148438 405.332031-.425781 32 47.785156c5.332031 8.105469 8.746094 17.28125 10.027344 26.878906zm0 0" fill="#90a4ae" data-original="#90A4AE"/><path d="m458.671875 149.34375h-128c-5.867187 0-10.667969-4.78125-10.667969-10.667969v-128c0-5.886719-4.777344-10.6679685-10.664062-10.6679685h-234.667969c-17.644531 0-32 14.3593755-32 31.9999995v384c0 5.890626 4.777344 10.667969 10.667969 10.667969h405.332031c5.886719 0 10.667969-4.777343 10.667969-10.667969v-256c0-5.886718-4.78125-10.664062-10.667969-10.664062zm0 0" fill="#eceff1" data-original="#ECEFF1"/><path d="m466.222656 152.457031-149.332031-149.332031c-3.050781-3.0507812-7.636719-3.96875-11.628906-2.304688-3.988281 1.664063-6.589844 5.546876-6.589844 9.855469v128c0 17.644531 14.355469 32 32 32h128c4.308594 0 8.210937-2.601562 9.855469-6.589843 1.644531-3.992188.726562-8.554688-2.304688-11.628907zm0 0" fill="#cfd8dc" data-original="#CFD8DC"/><path d="m511.257812 286.472656c-.769531-5.246094-5.269531-9.128906-10.558593-9.128906h-63.359375c-29.421875 0-53.335938 23.933594-53.335938 53.332031 0 14.207031-5.566406 27.585938-15.636718 37.695313-10.070313 10.113281-23.488282 15.636718-37.695313 15.636718h-149.332031c-29.421875 0-53.335938-23.933593-53.335938-53.332031 0-14.398437-5.609375-27.796875-15.59375-37.523437-9.941406-10.199219-23.339844-15.808594-37.738281-15.808594h-62.933594c-4.886719 0-9.171875 3.328125-10.347656 8.085938-1.214844 4.882812-1.38671875 9.664062-1.38671875 13.246093v138.667969c0 41.171875 33.49609375 74.664062 74.66796875 74.664062h362.667969c41.171875 0 74.664062-33.492187 74.664062-74.664062v-140.585938c0-3.523437-.253906-6.785156-.746094-10.285156zm0 0" fill="#455a64" data-original="#455A64" class="active-path" data-old_color="#455a64" style="fill:#A1A1A5"/><path d="m437.339844 512.007812h-362.667969c-41.171875 0-74.66796875-33.492187-74.66796875-74.664062v-138.667969c0-15.976562 4.99218775-31.230469 14.44531275-44.136719l29.929687-46.570312c3.179688-4.972656 9.769532-6.402344 14.742188-3.203125 4.949218 3.179687 6.378906 9.773437 3.199218 14.742187l-30.273437 47.105469c-7.144531 9.75-10.707031 20.648438-10.707031 32.0625v138.667969c0 29.394531 23.933594 53.332031 53.332031 53.332031h362.667969c29.394531 0 53.332031-23.9375 53.332031-53.332031v-140.628906c0-10.5625-3.09375-20.800782-8.960937-29.589844l-31.914063-47.871094c-3.265625-4.910156-1.941406-11.523437 2.964844-14.785156 4.886719-3.265625 11.519531-1.941406 14.785156 2.964844l31.914063 47.871094c8.214843 12.289062 12.542968 26.625 12.542968 41.410156v140.628906c0 41.171875-33.492187 74.664062-74.664062 74.664062zm0 0" data-original="#000000" class="" style="fill:#000000"/><path d="m330.671875 405.34375h-149.332031c-41.175782 0-74.667969-33.496094-74.667969-74.667969 0-17.640625-14.359375-32-32-32h-53.332031c-5.890625 0-10.667969-4.777343-10.667969-10.667969 0-5.886718 4.777344-10.664062 10.667969-10.664062h53.332031c29.398437 0 53.332031 23.933594 53.332031 53.332031 0 29.398438 23.9375 53.332031 53.335938 53.332031h149.332031c29.398437 0 53.332031-23.933593 53.332031-53.332031 0-5.886719 4.78125-10.667969 10.667969-10.667969s10.667969 4.78125 10.667969 10.667969c0 41.171875-33.496094 74.667969-74.667969 74.667969zm0 0" data-original="#000000" class="" style="fill:#000000"/><path d="m394.671875 341.34375c-5.886719 0-10.667969-4.78125-10.667969-10.667969 0-29.398437 23.9375-53.332031 53.335938-53.332031h53.332031c5.886719 0 10.667969 4.777344 10.667969 10.664062 0 5.890626-4.78125 10.667969-10.667969 10.667969h-53.332031c-17.644532 0-32 14.359375-32 32 0 5.886719-4.78125 10.667969-10.667969 10.667969zm0 0" data-original="#000000" class="" style="fill:#000000"/><path d="m458.671875 298.675781c-5.886719 0-10.667969-4.777343-10.667969-10.667969v-117.332031h-117.332031c-17.644531 0-32-14.355469-32-32v-117.332031h-224c-5.886719 0-10.667969 4.777344-10.667969 10.664062v256c0 5.890626-4.777344 10.667969-10.664062 10.667969-5.890625 0-10.667969-4.777343-10.667969-10.667969v-256c0-17.640624 14.355469-31.9999995 32-31.9999995h234.667969c5.886718 0 10.664062 4.7812495 10.664062 10.6679685v128c0 5.886719 4.78125 10.667969 10.667969 10.667969h128c5.886719 0 10.667969 4.777344 10.667969 10.664062v128c0 5.890626-4.78125 10.667969-10.667969 10.667969zm0 0" data-original="#000000" class="" style="fill:#000000"/><path d="m458.671875 170.675781c-2.730469 0-5.460937-1.046875-7.550781-3.113281l-149.335938-149.335938c-4.160156-4.160156-4.160156-10.921874 0-15.082031 4.160156-4.160156 10.921875-4.160156 15.082032 0l149.335937 149.335938c4.160156 4.160156 4.160156 10.921875 0 15.082031-2.070313 2.066406-4.800781 3.113281-7.53125 3.113281zm0 0" data-original="#000000" class="" style="fill:#000000"/></g> </svg>
